<?xml version="1.0" standalone="no"?>
<!DOCTYPE svg PUBLIC "-//W3C//DTD SVG 20010904//EN"
 "http://www.w3.org/TR/2001/REC-SVG-20010904/DTD/svg10.dtd">
<svg version="1.0" xmlns="http://www.w3.org/2000/svg"
 width="512.000000pt" height="512.000000pt" viewBox="0 0 512.000000 512.000000"
 preserveAspectRatio="xMidYMid meet">

<g transform="translate(0.000000,512.000000) scale(0.100000,-0.100000)"
fill="#000000" stroke="none">
<path d="M2378 5109 c-704 -68 -1310 -546 -1552 -1224 -94 -264 -125 -604 -77
-835 116 -553 601 -1426 1376 -2480 205 -278 424 -560 435 -560 19 0 371 464
604 797 l149 213 41 -33 c102 -82 203 -120 321 -120 100 0 173 21 254 73 208
135 276 335 191 563 -11 29 -65 135 -120 236 -55 101 -100 188 -100 193 0 5
30 63 66 129 120 218 253 508 318 696 86 243 109 365 108 553 -2 469 -183 903
-521 1253 -388 401 -933 600 -1493 546z m457 -768 c236 -50 449 -171 620 -352
94 -101 145 -174 201 -293 155 -328 151 -691 -11 -1016 -165 -332 -470 -566
-833 -636 -80 -16 -276 -20 -359 -9 -517 74 -923 465 -1009 974 -23 134 -15
330 20 464 51 200 153 382 298 533 101 105 186 170 300 229 136 71 240 101
443 129 59 8 242 -5 330 -23z m835 -2422 c106 -181 190 -332 188 -334 -9 -10
-487 -275 -494 -275 -9 1 -398 650 -392 655 23 19 495 292 499 289 4 -2 93
-153 199 -335z m285 -564 c0 -70 -4 -99 -20 -130 -69 -140 -247 -201 -388
-132 -53 26 -117 88 -117 112 1 5 112 76 248 157 l247 146 15 -31 c9 -20 14
-65 15 -122z"/>
<path d="M2505 4049 c-377 -37 -684 -327 -751 -711 -64 -367 115 -730 446
-902 142 -73 272 -101 443 -93 144 7 210 23 334 82 175 85 308 218 392 395
164 343 95 736 -174 995 -181 174 -433 259 -690 234z"/>
</g>
</svg>
